# xmcd
#
# Track frame offsets: 
#        150
#        17620
#        36346
#        50314
#        71970
#        89197
#        104921
#        119851
#        144815
#        162040
#        181568
#
# Disc length: 2742 seconds
#
# Revision: 0
# Processed by: cddbd v1.5.2PL0 Copyright (c) Steve Scherf et al.
# Submitted via: ExactAudioCopy v0.99pb5
#
DISCID=9c0ab40b
DTITLE=White Hot and Blue - Looking Back 82 - 02
DYEAR=1900
DGENRE=Blues
TTITLE0=Get Out Of My Life Women
TTITLE1=Bad Luck and Evil Chicks
TTITLE2=The Bear
TTITLE3=Tombstone Shadow
TTITLE4=Caldonia
TTITLE5=Two Times My Lovin
TTITLE6=Next Time You See Me
TTITLE7=Need Your Love So Bad
TTITLE8=If You Love Me Like You Say
TTITLE9=T For Texas
TTITLE10=Old Habits
EXTD=
EXTT0=
EXTT1=
EXTT2=
EXTT3=
EXTT4=
EXTT5=
EXTT6=
EXTT7=
EXTT8=
EXTT9=
EXTT10=
PLAYORDER=
